<svg xmlns="http://www.w3.org/2000/svg" width="1200" height="720" viewBox="0 0 1200 720" role="img" aria-labelledby="title desc">
  <title id="title">Tests de taille du wordmark PARZI v0.2</title>
  <desc id="desc">Comparaison du wordmark à 96, 144 et 218 pixels de large sur fonds clair et sombre.</desc>
  <defs>
    <g id="wordmark-v02">
      <path fill-rule="evenodd" d="M0 8H19C29 8 35 13 35 22C35 31 29 36 19 36H9V56H0V8ZM9 20L15 16H20L26 20V24L20 28H15L9 24V20Z" />
      <path fill-rule="evenodd" d="M43 56L59 8H70L86 56H76L72 44H57L53 56H43ZM59 36H70L66 20H63L59 36Z" />
      <path fill-rule="evenodd" d="M96 8H115C125 8 131 13 131 22C131 29 127 33 121 35L135 56H124L111 36H105V56H96V8ZM105 20L111 16H116L122 20V24L116 28H111L105 24V20Z" />
      <path d="M143 8H181V17L157 47H181V56H143V47L167 17H143V8Z" />
      <path d="M194 8H214L218 12V16H211V48H218V56H198L194 52V48H201V16H194V8Z" />
    </g>
  </defs>

  <rect width="1200" height="720" fill="#F8F5EF" />
  <g font-family="Arial, Helvetica, sans-serif">
    <text x="72" y="62" fill="#171717" font-size="28" font-weight="700">PARZI — tests de réduction du wordmark v0.2</text>
    <text x="72" y="94" fill="#666158" font-size="16">Largeurs exactes lorsque le SVG est affiché à 100 %.</text>

    <text x="72" y="148" fill="#171717" font-size="20" font-weight="700">Fond clair</text>
    <rect x="72" y="170" width="1056" height="190" rx="16" fill="#FFFFFF" stroke="#D7D2C8" />
    <text x="150" y="218" fill="#666158" font-size="15">96 px de large</text>
    <svg x="150" y="248" width="96" height="28.18" viewBox="0 0 218 64"><use href="#wordmark-v02" fill="#171717" /></svg>
    <text x="440" y="218" fill="#666158" font-size="15">144 px de large</text>
    <svg x="440" y="240" width="144" height="42.28" viewBox="0 0 218 64"><use href="#wordmark-v02" fill="#171717" /></svg>
    <text x="760" y="218" fill="#666158" font-size="15">218 px de large</text>
    <svg x="760" y="226" width="218" height="64" viewBox="0 0 218 64"><use href="#wordmark-v02" fill="#171717" /></svg>

    <text x="72" y="418" fill="#F8F5EF" font-size="20" font-weight="700">Fond sombre</text>
    <rect x="72" y="394" width="1056" height="230" rx="16" fill="#171717" />
    <text x="150" y="478" fill="#BDB6AA" font-size="15">96 px de large</text>
    <svg x="150" y="508" width="96" height="28.18" viewBox="0 0 218 64"><use href="#wordmark-v02" fill="#FFFFFF" /></svg>
    <text x="440" y="478" fill="#BDB6AA" font-size="15">144 px de large</text>
    <svg x="440" y="500" width="144" height="42.28" viewBox="0 0 218 64"><use href="#wordmark-v02" fill="#FFFFFF" /></svg>
    <text x="760" y="478" fill="#BDB6AA" font-size="15">218 px de large</text>
    <svg x="760" y="486" width="218" height="64" viewBox="0 0 218 64"><use href="#wordmark-v02" fill="#FFFFFF" /></svg>

    <text x="72" y="682" fill="#666158" font-size="15">Prototype documentaire — le symbole reste recommandé sous 96 px de largeur disponible.</text>
  </g>
</svg>
